<?xml version="1.0" encoding="utf-8"?>
<!-- Generator: Adobe Illustrator 21.0.0, SVG Export Plug-In . SVG Version: 6.00 Build 0)  -->
<svg version="1.1" xmlns="http://www.w3.org/2000/svg" xmlns:xlink="http://www.w3.org/1999/xlink" x="0px" y="0px"
	 viewBox="0 0 100 100" style="enable-background:new 0 0 100 100;" xml:space="preserve">
<style type="text/css">
	.st0{display:none;}
	.st1{display:inline;fill:#373E4A;}
	.st2{display:inline;fill:#E6E6E6;}
	.st3{display:inline;fill:#E9EBED;}
	.st4{fill:#E8EAEE;}
	.st5{fill:#D1D5DD;}
	.st6{fill:none;stroke:#EDEEF1;stroke-width:2;stroke-miterlimit:10;}
	.st7{fill:#667388;}
	.st8{opacity:0.25;}
	.st9{fill:#8C96A9;}
	.st10{fill:none;stroke:#8C96A9;stroke-width:2;stroke-miterlimit:10;}
	.st11{fill:#BAC0CB;}
	.st12{fill:none;stroke:#EDEEF1;stroke-miterlimit:10;}
	.st13{fill:none;stroke:#667388;stroke-width:3;stroke-miterlimit:10;}
	.st14{fill:none;stroke:#BAC0CB;stroke-width:6;stroke-miterlimit:10;}
	.st15{fill:none;stroke:#667388;stroke-width:6;stroke-miterlimit:10;}
	.st16{fill:none;stroke:#667388;stroke-width:2;stroke-miterlimit:10;}
	.st17{fill:none;stroke:#999999;stroke-miterlimit:10;}
	.st18{fill:none;stroke:#667388;stroke-width:2;stroke-linejoin:round;stroke-miterlimit:10;}
	.st19{fill:none;stroke:#999999;stroke-width:2;stroke-miterlimit:10;}
	.st20{opacity:0.38;}
	.st21{fill:none;stroke:#BAC0CB;stroke-width:2;stroke-miterlimit:10;}
	.st22{fill:none;stroke:#667388;stroke-width:4;stroke-linecap:round;stroke-miterlimit:10;}
	.st23{fill:#EDEEF1;}
	.st24{fill:#F9F9FA;}
	.st25{fill:#21262E;}
	.st26{fill:#DFE3E9;}
	.st27{fill:#BEC6D3;}
	.st28{fill:#7D8DA8;}
	.st29{fill:#5D7192;}
	.st30{fill:#46556D;}
	.st31{fill:#2E3949;}
	.st32{fill:#4C576A;}
	.st33{fill:#373E4A;}
	.st34{fill:#2C323B;}
</style>
<g id="%u0421%u043B%u043E%u0439_5" class="st0">
	<rect x="-2587.4" y="-1594.3" class="st1" width="5175.5" height="3102.3"/>
</g>
<g id="circle_bg" class="st0">
	<circle class="st2" cx="50" cy="50" r="50"/>
</g>
<g id="square_bg" class="st0">
	<rect class="st3" width="100" height="100"/>
</g>
<g id="%u0421%u043B%u043E%u0439_2">
	<g>
		<g>
			<path class="st7" d="M25.1,43.1c4.5,0,8.2,3.7,8.2,8.2s-3.7,8.2-8.2,8.2c-4.5,0-8.2-3.7-8.2-8.2S20.6,43.1,25.1,43.1 M25.1,41.1
				c-5.6,0-10.2,4.6-10.2,10.2s4.6,10.2,10.2,10.2c5.6,0,10.2-4.6,10.2-10.2S30.7,41.1,25.1,41.1L25.1,41.1z"/>
		</g>
		<circle class="st9" cx="25.1" cy="51.3" r="6.4"/>
		<g>
			<rect x="42.5" y="41.5" class="st9" width="42.6" height="8.5"/>
			<rect x="42.5" y="53" class="st9" width="33" height="8.5"/>
		</g>
	</g>
</g>
</svg>
