<?xml version="1.0" encoding="utf-8"?>
<!-- Generator: Adobe Illustrator 21.0.0, SVG Export Plug-In . SVG Version: 6.00 Build 0)  -->
<svg version="1.1" xmlns="http://www.w3.org/2000/svg" xmlns:xlink="http://www.w3.org/1999/xlink" x="0px" y="0px"
	 viewBox="0 0 100 100" style="enable-background:new 0 0 100 100;" xml:space="preserve">
<style type="text/css">
	.st0{display:none;}
	.st1{display:inline;fill:#373E4A;}
	.st2{display:inline;fill:#E6E6E6;}
	.st3{display:inline;fill:#E9EBED;}
	.st4{fill:#E8EAEE;}
	.st5{fill:#D1D5DD;}
	.st6{fill:none;stroke:#EDEEF1;stroke-width:2;stroke-miterlimit:10;}
	.st7{fill:#667388;}
	.st8{opacity:0.25;}
	.st9{fill:#8C96A9;}
	.st10{fill:none;stroke:#8C96A9;stroke-width:2;stroke-miterlimit:10;}
	.st11{fill:#BAC0CB;}
	.st12{fill:none;stroke:#EDEEF1;stroke-miterlimit:10;}
	.st13{fill:none;stroke:#667388;stroke-width:3;stroke-miterlimit:10;}
	.st14{fill:none;stroke:#BAC0CB;stroke-width:6;stroke-miterlimit:10;}
	.st15{fill:none;stroke:#667388;stroke-width:6;stroke-miterlimit:10;}
	.st16{fill:none;stroke:#667388;stroke-width:2;stroke-miterlimit:10;}
	.st17{fill:none;stroke:#999999;stroke-miterlimit:10;}
	.st18{fill:none;stroke:#667388;stroke-width:2;stroke-linejoin:round;stroke-miterlimit:10;}
	.st19{fill:none;stroke:#999999;stroke-width:2;stroke-miterlimit:10;}
	.st20{opacity:0.38;}
	.st21{fill:none;stroke:#BAC0CB;stroke-width:2;stroke-miterlimit:10;}
	.st22{fill:none;stroke:#667388;stroke-width:4;stroke-linecap:round;stroke-miterlimit:10;}
	.st23{fill:#EDEEF1;}
	.st24{fill:#F9F9FA;}
	.st25{fill:#21262E;}
	.st26{fill:#DFE3E9;}
	.st27{fill:#BEC6D3;}
	.st28{fill:#7D8DA8;}
	.st29{fill:#5D7192;}
	.st30{fill:#46556D;}
	.st31{fill:#2E3949;}
	.st32{fill:#4C576A;}
	.st33{fill:#373E4A;}
	.st34{fill:#2C323B;}
</style>
<g id="%u0421%u043B%u043E%u0439_5" class="st0">
	<rect x="-2827.4" y="-1354.3" class="st1" width="5175.5" height="3102.3"/>
</g>
<g id="circle_bg" class="st0">
	<circle class="st2" cx="50" cy="50" r="50"/>
</g>
<g id="square_bg" class="st0">
	<rect class="st3" width="100" height="100"/>
</g>
<g id="%u0421%u043B%u043E%u0439_2">
	<g>
		<path class="st9" d="M49.7,24c0.2-0.5,0.4-0.5,0.6,0l5.4,16.5c0.2,0.5,0.8,1,1.3,1h17.3c0.5,0,0.6,0.3,0.2,0.6l-14,10.3
			c-0.4,0.3-0.7,1-0.5,1.5l5.4,16.5c0.2,0.5-0.1,0.7-0.5,0.4l-14-10.2c-0.4-0.3-1.2-0.3-1.6,0l-14,10.2c-0.4,0.3-0.7,0.2-0.5-0.4
			L40,53.8c0.2-0.5-0.1-1.2-0.5-1.5L25.5,42c-0.4-0.3-0.4-0.6,0.2-0.6H43c0.6,0,1.1-0.4,1.3-1L49.7,24z"/>
	</g>
</g>
</svg>
